<svg width="92" height="24" viewBox="0 0 92 24" fill="none" xmlns="http://www.w3.org/2000/svg">
<path fill-rule="evenodd" clip-rule="evenodd" d="M35.2219 15.3772C35.4135 15.3772 35.5713 15.5216 35.5914 15.7069L35.5936 15.7472L35.5935 17.4586C35.5935 17.6493 35.4486 17.8063 35.2623 17.8264L35.2218 17.8286H34.1804C33.9886 17.8286 33.8309 17.6843 33.8107 17.4989L33.8085 17.4586L33.8082 16.9755L32.6106 16.9756C32.4189 16.9756 32.2612 16.8313 32.241 16.6459L32.2388 16.6056V15.7472C32.2388 15.5566 32.3838 15.3995 32.57 15.3794L32.6106 15.3772H35.2219ZM49.8314 7.5366C51.2548 7.5366 52.3583 8.60756 52.4011 10.0117L52.4023 10.0963V12.656H55.4875C55.9344 12.656 56.1536 12.457 56.1718 12.0327L56.173 11.9734V9.58435C56.173 9.39992 56.2967 9.26373 56.474 9.24521L56.5158 9.24306H57.5442C57.7295 9.24306 57.8662 9.36608 57.8848 9.54268L57.887 9.58435V11.9734C57.887 13.3887 56.9784 14.3229 55.5775 14.3612L55.4875 14.3624H53.2593C53.0706 14.3624 52.9294 14.3264 52.8112 14.196L52.7764 14.154L52.4023 13.6799V14.0211C52.4023 14.2052 52.2785 14.3417 52.1013 14.3603L52.0595 14.3624H46.5749C46.5749 15.7806 45.3326 17.0442 43.9146 17.0914L43.8326 17.0928H41.0861C39.5719 17.0928 38.3882 15.9429 38.3489 14.449L38.3479 14.3624V11.2908C38.3479 11.1064 38.4715 10.9702 38.6488 10.9517L38.6907 10.9495H39.7191C39.9043 10.9495 40.0411 11.0726 40.0597 11.2492L40.0619 11.2908L40.0583 14.3566C40.0583 14.9055 40.4865 15.3533 41.0264 15.3846L41.0869 15.3863H43.8326C44.2831 15.3863 44.821 14.8668 44.8588 14.4126L44.8609 14.3624H43.4898C43.3043 14.3624 43.1677 14.2396 43.1491 14.0629L43.147 14.0211V12.9973C43.147 12.8127 43.2704 12.6766 43.4479 12.6581L43.4898 12.656H50.6884V10.0963C50.6884 9.64971 50.3292 9.27423 49.8871 9.2449L49.8314 9.24306H46.4035C46.1969 9.24306 46.11 8.94143 46.2121 8.76152L46.9177 7.70725C47.016 7.57764 47.255 7.54635 47.4535 7.5389L47.6033 7.5366H49.8314ZM56.8586 15.3863C57.0441 15.3863 57.1807 15.5092 57.1993 15.6859L57.2014 15.7276V16.7515C57.2014 16.9361 57.078 17.0721 56.9005 17.0906L56.8586 17.0928H54.1163C53.9309 17.0928 53.7942 16.9699 53.7757 16.7932L53.7735 16.7515V15.7276C53.7735 15.543 53.8969 15.407 54.0744 15.3885L54.1163 15.3863H56.8586ZM49.1458 15.3863C49.3312 15.3863 49.4679 15.5092 49.4865 15.6859L49.4886 15.7276V16.7515C49.4886 16.9361 49.3652 17.0721 49.1877 17.0906L49.1458 17.0928H47.9461C47.7607 17.0928 47.624 16.9699 47.6054 16.7932L47.6033 16.7515V15.7276C47.6033 15.543 47.7267 15.407 47.9042 15.3885L47.9461 15.3863H49.1458ZM17.7714 9.24306C17.9567 9.24306 18.0935 9.36611 18.1121 9.54263L18.1143 9.58429V12.6559L19.1428 12.656C19.6906 12.656 20.1384 12.2278 20.1697 11.6878L20.1714 11.6274V9.58435C20.1714 9.39999 20.2955 9.26374 20.4728 9.24521L20.5146 9.24306H21.525C21.7109 9.24306 21.864 9.38324 21.8836 9.56335L21.8857 9.60252L21.8856 11.8132C21.8858 12.1105 21.8342 12.3973 21.7394 12.664L21.8927 12.663C22.4378 12.6592 22.8815 12.232 22.9125 11.6946L22.9143 11.6344V9.58435C22.9143 9.39999 23.0384 9.26374 23.2156 9.24521L23.2574 9.24306H24.2679C24.4538 9.24306 24.6069 9.38324 24.6264 9.56335L24.6285 9.60252L24.6284 11.8132C24.629 12.5144 24.3409 13.1571 23.8794 13.6157C23.4423 14.0527 22.8384 14.3336 22.1758 14.3603L22.0707 14.3624H21.6077C21.5087 14.3624 21.4147 14.3219 21.3471 14.2515L20.9486 13.7857C20.5342 14.1241 20.0067 14.3366 19.4354 14.3602L19.3278 14.3624L18.1143 14.351C18.1143 15.6494 17.084 16.7066 15.7968 16.7501L15.7143 16.7515H13.6571C12.3592 16.7515 11.302 15.7213 11.2585 14.434L11.2571 14.3515V10.2669C11.2571 10.0825 11.3807 9.94632 11.5581 9.9278L11.6 9.92564H12.6285C12.8139 9.92564 12.9507 10.0487 12.9692 10.2252L12.9714 10.2669V14.0165C12.9714 14.5642 13.3996 15.012 13.9395 15.0433L14 15.045H15.3714C15.9192 15.045 16.3669 14.6168 16.3982 14.0769L16.4 14.0165V9.58429C16.4 9.39995 16.5236 9.26373 16.701 9.24521L16.7428 9.24306H17.7714ZM62.3433 7.5366C63.7649 7.5366 64.7031 8.44127 64.7416 9.83596L64.7428 9.92564V11.9734C64.7428 13.3887 63.8342 14.3229 62.4334 14.3612L62.3433 14.3624H59.2582C59.073 14.3624 58.9361 14.2394 58.9175 14.0628L58.9154 14.0211V12.9973C58.9154 12.8128 59.039 12.6766 59.2163 12.6581L59.2582 12.656H62.3433C62.7903 12.656 63.0094 12.457 63.0276 12.0327L63.0289 11.9734V9.92564C63.0289 9.48068 62.8292 9.26243 62.4028 9.2443L62.3433 9.24306H59.2582C59.073 9.24306 58.9361 9.11998 58.9175 8.94343L58.9154 8.90177V7.87789C58.9154 7.69346 59.039 7.55727 59.2163 7.53875L59.2582 7.5366H62.3433ZM31.4934 6.17143C31.6786 6.17143 31.8154 6.29451 31.834 6.47106L31.8362 6.51272V11.9734C31.8362 12.2187 31.8143 12.4466 31.7713 12.6564L34.0571 12.656C34.2951 12.6554 34.5079 12.5468 34.6649 12.3942C34.8047 12.2554 34.8944 12.0767 34.9113 11.8719L34.9143 11.8028V9.59156C34.9143 9.40324 35.034 9.26287 35.217 9.24499L35.2571 9.24306H36.2857C36.4764 9.24306 36.6086 9.36336 36.6265 9.5421L36.6285 9.58435V11.7718C36.6291 12.4844 36.3321 13.1375 35.8563 13.6036C35.4058 14.0477 34.8422 14.3331 34.165 14.3603L34.0571 14.3624H31.8624C31.7604 14.3624 31.6635 14.3212 31.5938 14.2497L31.5657 14.2172L31.2071 13.7515C30.8216 14.1307 30.2654 14.3397 29.5562 14.3607L29.4366 14.3624H25.6659C25.4807 14.3624 25.3439 14.2395 25.3253 14.0628L25.3231 14.0211V12.9973C25.3231 12.8129 25.4467 12.6767 25.6241 12.6581L25.6659 12.656H29.4366C29.8836 12.656 30.1028 12.4571 30.121 12.0327L30.1222 11.9734V6.51272C30.1222 6.32835 30.2458 6.19211 30.4232 6.17359L30.465 6.17143H31.4934ZM26.2344 6.17143C26.4166 6.17143 26.6158 6.25012 26.6652 6.42478L28.0712 11.1655C28.1245 11.3542 28.0032 11.4994 27.8063 11.4994H26.6886C26.5027 11.4994 26.3394 11.3764 26.289 11.1982L24.9804 6.51272C24.9266 6.32259 25.1247 6.17143 25.3231 6.17143H26.2344Z" fill="#B12BA4"/>
<path fill-rule="evenodd" clip-rule="evenodd" d="M80.1451 10.7442H80.2509C80.5224 10.7442 80.7429 10.9644 80.7429 11.2364V12.7632C80.7429 13.0348 80.5224 13.2552 80.2509 13.2552H80.182C80.1546 13.2584 80.1267 13.2594 80.0984 13.2572C78.9924 13.1745 77.8957 13.5755 77.104 14.3672C76.3123 15.159 75.9116 16.2559 75.9943 17.3621C75.995 17.3713 75.9946 17.3802 75.9942 17.389C75.994 17.3934 75.9938 17.3978 75.9937 17.4021L75.9941 17.508C75.9941 17.7795 75.7739 18 75.5022 18H73.9757C73.704 18 73.4836 17.7795 73.4836 17.508V17.4021L73.4902 17.4009C73.4901 17.3964 73.4899 17.3919 73.4896 17.3874C73.4892 17.3791 73.4887 17.3708 73.4894 17.3621C73.5724 16.2559 73.1714 15.159 72.3797 14.3672C71.5882 13.5755 70.4914 13.1745 69.3853 13.2572C69.357 13.2594 69.3292 13.2584 69.3019 13.2552H69.2348C68.9631 13.2552 68.7429 13.0348 68.7429 12.7632V11.2364C68.7429 10.9644 68.9631 10.7442 69.2348 10.7442H69.3404L69.341 10.747C69.345 10.7469 69.3489 10.7467 69.3529 10.7465C69.3636 10.7461 69.3743 10.7456 69.3853 10.7464C70.4914 10.8293 71.5882 10.4283 72.3797 9.63624C73.1714 8.84477 73.5724 7.74767 73.4894 6.64135C73.4887 6.63126 73.4892 6.62127 73.4897 6.61139C73.4899 6.60733 73.4901 6.60329 73.4902 6.59926L73.4836 6.59786V6.49203C73.4836 6.22026 73.704 6 73.9757 6H75.5022C75.7739 6 75.9941 6.22026 75.9941 6.49203V6.59786C75.9942 6.60219 75.9938 6.60649 75.994 6.61078C75.9945 6.62096 75.995 6.63105 75.9943 6.64135C75.9116 7.74767 76.3123 8.84477 77.104 9.63624C77.8957 10.4283 78.9924 10.8293 80.0984 10.7464C80.1098 10.7455 80.1209 10.746 80.1319 10.7465C80.1361 10.7467 80.1403 10.7469 80.1445 10.747L80.1451 10.7442ZM74.743 15C75.0248 14.3408 75.4308 13.7323 75.9506 13.2119C76.4718 12.6899 77.0822 12.2824 77.7429 12C77.0822 11.7176 76.4718 11.3099 75.9506 10.7881C75.4308 10.2679 75.0248 9.65876 74.743 9C74.4609 9.65876 74.0549 10.2679 73.5351 10.7881C73.0139 11.3099 72.4036 11.7176 71.7429 12C72.4036 12.2824 73.0139 12.6899 73.5351 13.2119C74.0549 13.7323 74.4609 14.3408 74.743 15Z" fill="#B12BA4"/>
<rect x="1" y="1" width="90" height="22" rx="3" stroke="#B12BA4" stroke-width="2"/>
</svg>
