<svg width="154" height="46" viewBox="0 0 154 46" fill="none" xmlns="http://www.w3.org/2000/svg">
<rect x="0.5" y="0.5" width="153" height="44.6296" rx="3.5" fill="black" stroke="#4A4A4A"/>
<path fill-rule="evenodd" clip-rule="evenodd" d="M11.9356 8.43886C11.6037 8.78907 11.4075 9.33435 11.4075 10.0416V35.2691C11.4075 35.9764 11.6037 36.5205 11.9356 36.8718L12.0189 36.9551L26.1527 22.8225V22.6559V22.4882L12.0189 8.35559L11.9356 8.43886Z" fill="url(#paint0_linear)"/>
<path fill-rule="evenodd" clip-rule="evenodd" d="M11.9356 8.43886C11.6037 8.78907 11.4075 9.33435 11.4075 10.0416V35.2691C11.4075 35.9764 11.6037 36.5205 11.9356 36.8718L12.0189 36.9551L26.1527 22.8225V22.6559V22.4882L12.0189 8.35559L11.9356 8.43886Z" fill="url(#paint1_linear)"/>
<path fill-rule="evenodd" clip-rule="evenodd" d="M26.1526 22.4884V22.656V22.8226L30.8627 27.535L30.9711 27.4757L36.5516 24.3021C38.1463 23.3975 38.1463 21.9146 36.5516 21.0088L30.9711 17.8376L30.8638 17.7771L26.1526 22.4884Z" fill="#FFD200"/>
<path fill-rule="evenodd" clip-rule="evenodd" d="M26.1526 22.4884V22.656V22.8226L30.8627 27.535L30.9711 27.4757L36.5516 24.3021C38.1463 23.3975 38.1463 21.9146 36.5516 21.0088L30.9711 17.8376L30.8638 17.7771L26.1526 22.4884Z" fill="url(#paint2_linear)"/>
<path fill-rule="evenodd" clip-rule="evenodd" d="M11.9355 36.8719C12.2093 37.1628 12.5778 37.3202 13.0056 37.3259H13.0535C13.4333 37.3202 13.8577 37.197 14.306 36.9426L30.9711 27.4745L26.1526 22.656L11.9355 36.8719Z" fill="url(#paint3_linear)"/>
<path fill-rule="evenodd" clip-rule="evenodd" d="M11.9355 8.439L26.1526 22.6561L30.9711 17.8364L14.306 8.36827C13.8474 8.10819 13.4128 7.98499 13.0272 7.98499C12.5903 7.98499 12.2139 8.14355 11.9355 8.439Z" fill="#00F076"/>
<path fill-rule="evenodd" clip-rule="evenodd" d="M11.9355 8.439L26.1526 22.6561L30.9711 17.8364L14.306 8.36827C13.8474 8.10819 13.4128 7.98499 13.0272 7.98499C12.5903 7.98499 12.2139 8.14355 11.9355 8.439Z" fill="url(#paint4_linear)"/>
<path fill-rule="evenodd" clip-rule="evenodd" d="M120.799 34.4896H122.926V20.2292H120.799V34.4896ZM139.97 25.366L137.531 31.5488H137.457L134.926 25.366H132.633L136.43 34.0071L134.265 38.8142H136.485L142.338 25.366H139.97ZM127.898 32.8698C127.202 32.8698 126.23 32.5207 126.23 31.6583C126.23 30.5586 127.44 30.1354 128.486 30.1354C129.42 30.1354 129.862 30.3385 130.43 30.6123C130.266 31.9344 129.128 32.8698 127.898 32.8698ZM128.155 25.0534C126.614 25.0534 125.018 25.7333 124.358 27.2368L126.247 28.0262C126.652 27.2368 127.404 26.9801 128.192 26.9801C129.293 26.9801 130.413 27.6406 130.43 28.8145V28.9616C130.044 28.7414 129.22 28.4118 128.21 28.4118C126.174 28.4118 124.1 29.5308 124.1 31.6218C124.1 33.5303 125.77 34.76 127.642 34.76C129.073 34.76 129.862 34.1178 130.357 33.3649H130.43V34.4657H132.486V28.9981C132.486 26.4668 130.595 25.0534 128.155 25.0534ZM115.002 27.1022H111.973V22.2141H115.002C116.592 22.2141 117.495 23.5305 117.495 24.6576C117.495 25.763 116.592 27.1022 115.002 27.1022ZM114.946 20.2281H109.845V34.4896H111.973V29.0871H114.946C117.305 29.0871 119.625 27.3794 119.625 24.6576C119.625 21.9369 117.305 20.2281 114.946 20.2281ZM87.1332 32.8721C85.6628 32.8721 84.4319 31.6412 84.4319 29.9506C84.4319 28.2407 85.6628 26.9915 87.1332 26.9915C88.5854 26.9915 89.725 28.2407 89.725 29.9506C89.725 31.6412 88.5854 32.8721 87.1332 32.8721ZM89.5778 26.1645H89.5037C89.0257 25.5953 88.1074 25.0797 86.9495 25.0797C84.5232 25.0797 82.2999 27.2129 82.2999 29.9506C82.2999 32.6702 84.5232 34.7839 86.9495 34.7839C88.1074 34.7839 89.0257 34.2695 89.5037 33.6809H89.5778V34.379C89.5778 36.2361 88.5854 37.2274 86.986 37.2274C85.6822 37.2274 84.8734 36.2909 84.5426 35.5003L82.6866 36.2726C83.2182 37.5582 84.6338 39.1393 86.986 39.1393C89.4866 39.1393 91.5992 37.6689 91.5992 34.0847V25.374H89.5778V26.1645ZM93.0696 34.4896H95.2005V20.2292H93.0696V34.4896ZM98.3433 29.7852C98.2885 27.9098 99.7966 26.955 100.88 26.955C101.726 26.955 102.442 27.3783 102.682 27.984L98.3433 29.7852ZM104.96 28.1677C104.556 27.0839 103.324 25.0797 100.806 25.0797C98.3068 25.0797 96.2306 27.0463 96.2306 29.9324C96.2306 32.6519 98.2885 34.784 101.045 34.784C103.269 34.784 104.556 33.4242 105.088 32.6337L103.434 31.5306C102.883 32.3393 102.131 32.8721 101.045 32.8721C99.9608 32.8721 99.1886 32.3758 98.6935 31.4017L105.18 28.7186L104.96 28.1677ZM53.2749 26.5695V28.6274H58.2006C58.0534 29.7852 57.6679 30.6305 57.0792 31.218C56.3617 31.9355 55.2415 32.7261 53.2749 32.7261C50.2428 32.7261 47.8723 30.2814 47.8723 27.2494C47.8723 24.2173 50.2428 21.7715 53.2749 21.7715C54.9107 21.7715 56.1051 22.4149 56.9868 23.2431L58.439 21.7909C57.2082 20.6148 55.5723 19.7136 53.2749 19.7136C49.1214 19.7136 45.6296 23.0959 45.6296 27.2494C45.6296 31.4017 49.1214 34.784 53.2749 34.784C55.5164 34.784 57.2082 34.0482 58.5303 32.6702C59.8912 31.3104 60.3132 29.3997 60.3132 27.8551C60.3132 27.3783 60.2767 26.9368 60.2037 26.5695H53.2749ZM65.9132 32.8721C64.4427 32.8721 63.1742 31.6595 63.1742 29.9324C63.1742 28.1859 64.4427 26.9915 65.9132 26.9915C67.3836 26.9915 68.6509 28.1859 68.6509 29.9324C68.6509 31.6595 67.3836 32.8721 65.9132 32.8721ZM65.9132 25.0797C63.2301 25.0797 61.0433 27.1205 61.0433 29.9324C61.0433 32.7261 63.2301 34.784 65.9132 34.784C68.5962 34.784 70.783 32.7261 70.783 29.9324C70.783 27.1205 68.5962 25.0797 65.9132 25.0797ZM76.5369 32.8721C75.0665 32.8721 73.7991 31.6595 73.7991 29.9324C73.7991 28.1859 75.0665 26.9915 76.5369 26.9915C78.0073 26.9915 79.2747 28.1859 79.2747 29.9324C79.2747 31.6595 78.0073 32.8721 76.5369 32.8721ZM76.5369 25.0797C73.8538 25.0797 71.667 27.1205 71.667 29.9324C71.667 32.7261 73.8538 34.784 76.5369 34.784C79.221 34.784 81.4078 32.7261 81.4078 29.9324C81.4078 27.1205 79.221 25.0797 76.5369 25.0797Z" fill="white"/>
<path fill-rule="evenodd" clip-rule="evenodd" d="M110.174 7.86536H109.007V14.8296H110.174V7.86536ZM129.573 14.8296H129.084C128.866 14.8296 128.661 14.8003 128.469 14.7417C128.277 14.6832 128.107 14.5849 127.961 14.4469C127.814 14.3088 127.697 14.129 127.61 13.9073C127.522 13.6856 127.478 13.4075 127.478 13.0728V7.86536H128.645V12.7968C128.645 13.0394 128.699 13.2297 128.808 13.3677C128.917 13.5058 129.088 13.5748 129.322 13.5748H129.573C129.54 13.575 129.51 13.6106 129.485 13.6814C129.46 13.7525 129.448 13.9345 129.448 14.2273L129.449 14.3527C129.452 14.5479 129.465 14.6734 129.485 14.7292C129.511 14.7961 129.54 14.8296 129.573 14.8296ZM129.573 14.8296L129.573 13.5748H132.196C132.706 13.5748 132.961 13.328 132.961 12.8344V11.4918H134.116V12.9223C134.116 13.5497 133.957 14.0244 133.639 14.3465C133.321 14.6685 132.869 14.8296 132.284 14.8296L129.573 14.8296ZM141.745 11.9811C141.954 12.2154 142.107 12.4496 142.203 12.6838C142.299 12.9181 142.347 13.1439 142.347 13.3614C142.347 13.7714 142.201 14.1185 141.908 14.4029C141.615 14.6874 141.185 14.8296 140.616 14.8296H137.579L137.516 13.5748H140.427C140.804 13.5748 140.992 13.4326 140.992 13.1481C140.992 13.0344 140.949 12.9233 140.864 12.8148L138.846 10.5256L139.762 9.67229L141.745 11.9811ZM133.539 16.3354H133.689C134.007 16.3354 134.279 16.2873 134.505 16.1911C134.731 16.0949 134.917 15.9694 135.063 15.8146C135.21 15.6598 135.316 15.48 135.383 15.275C135.45 15.0701 135.483 14.8589 135.483 14.6414V11.4918H136.638V14.6414C136.638 15.0513 136.567 15.4361 136.425 15.7958C136.282 16.1555 136.09 16.4671 135.847 16.7306C135.605 16.9941 135.314 17.2033 134.975 17.358C134.636 17.5128 134.275 17.5902 133.89 17.5902H133.601L133.539 16.3354ZM132.66 17.2388H131.493V16.122H132.66V17.2388ZM129.837 17.2388H131.016V16.122H129.837V17.2388ZM121.241 14.2273L121.242 14.3527C121.246 14.5479 121.258 14.6734 121.279 14.7292C121.304 14.7961 121.333 14.8296 121.367 14.8296L121.091 14.8296C120.815 14.8296 120.555 14.7836 120.313 14.6916C120.07 14.5995 119.861 14.4071 119.685 14.1143C119.501 14.4071 119.298 14.5995 119.077 14.6916C118.855 14.7836 118.619 14.8296 118.368 14.8296H114.528C114.21 14.8296 113.94 14.7815 113.719 14.6853C113.497 14.5891 113.317 14.4615 113.179 14.3026C113.041 14.1436 112.939 13.9575 112.872 13.7442C112.805 13.5308 112.771 13.3071 112.771 13.0728V11.4416H113.926V12.7717C113.926 13.0226 113.982 13.2192 114.095 13.3614C114.208 13.5037 114.436 13.5748 114.779 13.5748H118.368C118.878 13.5748 119.133 13.328 119.133 12.8344V11.4918H120.3V12.8344C120.3 13.1021 120.384 13.2924 120.551 13.4054C120.718 13.5183 120.915 13.5748 121.141 13.5748H121.367C121.333 13.575 121.304 13.6105 121.279 13.6814C121.254 13.7525 121.241 13.9345 121.241 14.2273ZM123.939 14.8296H121.367V13.5748L122.396 13.5748C122.521 13.5748 122.63 13.5769 122.722 13.581L122.855 13.5889L122.979 13.5999C123.059 13.6082 123.136 13.6187 123.211 13.6312C123.287 13.6438 123.37 13.6626 123.462 13.6877C123.195 13.5706 122.981 13.4514 122.822 13.3301C122.663 13.2088 122.542 13.0749 122.458 12.9285C122.375 12.7821 122.32 12.6232 122.295 12.4517C122.27 12.2802 122.258 12.0899 122.258 11.8808C122.258 11.6716 122.297 11.4583 122.377 11.2408C122.456 11.0233 122.576 10.8267 122.735 10.651C122.893 10.4754 123.09 10.3311 123.324 10.2181C123.559 10.1052 123.835 10.0487 124.152 10.0487C124.445 10.0487 124.713 10.0864 124.956 10.1617C125.198 10.237 125.407 10.3624 125.583 10.5381C125.759 10.7138 125.895 10.9459 125.991 11.2345C126.087 11.5231 126.135 11.8766 126.135 12.2949V12.8721C126.135 13.4827 125.959 13.9617 125.608 14.3088C125.257 14.656 124.7 14.8296 123.939 14.8296ZM124.127 11.3035C123.851 11.3035 123.648 11.3893 123.519 11.5608C123.389 11.7323 123.324 11.9142 123.324 12.1066C123.324 12.207 123.337 12.3053 123.362 12.4015C123.387 12.4977 123.45 12.596 123.55 12.6964C123.651 12.7968 123.801 12.9034 124.002 13.0164C124.203 13.1293 124.475 13.2569 124.818 13.3991C124.884 13.3238 124.935 13.2213 124.968 13.0917C125.002 12.962 125.018 12.8302 125.018 12.6964V12.3952C125.018 12.0774 124.956 11.8159 124.83 11.611C124.705 11.406 124.47 11.3035 124.127 11.3035ZM123.513 9.10762H124.792V7.95319H123.513V9.10762ZM116.749 10.5632H117.941V9.44642H116.749V10.5632ZM116.31 10.5632H115.118V9.44642H116.31V10.5632ZM107.852 14.6414C107.852 15.0513 107.781 15.4361 107.639 15.7958C107.497 16.1555 107.305 16.4671 107.062 16.7306C106.819 16.9941 106.529 17.2033 106.19 17.358C105.851 17.5128 105.489 17.5902 105.104 17.5902H104.389L104.326 16.3354H104.816C105.15 16.3354 105.437 16.2873 105.675 16.1911C105.914 16.0949 106.108 15.9694 106.259 15.8146C106.409 15.6598 106.52 15.48 106.591 15.275C106.662 15.0701 106.698 14.8589 106.698 14.6414V11.4918H107.852V14.6414ZM106.585 10.1617H107.865V9.00724H106.585V10.1617Z" fill="white"/>
<defs>
<linearGradient id="paint0_linear" x1="11.4075" y1="8.35559" x2="11.4075" y2="36.9551" gradientUnits="userSpaceOnUse">
<stop stop-color="white"/>
<stop offset="1"/>
</linearGradient>
<linearGradient id="paint1_linear" x1="10.7229" y1="3.15602" x2="-5.73318" y2="21.9333" gradientUnits="userSpaceOnUse">
<stop stop-color="#00C3FF"/>
<stop offset="1" stop-color="#06E1FF"/>
</linearGradient>
<linearGradient id="paint2_linear" x1="26.1526" y1="27.535" x2="37.7476" y2="27.535" gradientUnits="userSpaceOnUse">
<stop stop-color="#FEBD00"/>
<stop offset="1" stop-color="#FFDB00"/>
</linearGradient>
<linearGradient id="paint3_linear" x1="11.5088" y1="15.27" x2="-6.65908" y2="45.8599" gradientUnits="userSpaceOnUse">
<stop stop-color="#FF3A44"/>
<stop offset="1" stop-color="#C31162"/>
</linearGradient>
<linearGradient id="paint4_linear" x1="4.75869" y1="13.9169" x2="13.5455" y2="29.7614" gradientUnits="userSpaceOnUse">
<stop stop-color="#04E975"/>
<stop offset="1" stop-color="#00F076"/>
</linearGradient>
</defs>
</svg>
